<svg width="39" height="39" viewBox="0 0 39 39" fill="none" xmlns="http://www.w3.org/2000/svg">
<g clip-path="url(#clip0_10_44)">
<path d="M25.0114 22.5909H23.7366L23.2848 22.1553C24.8662 20.3157 25.8182 17.9275 25.8182 15.3296C25.8182 9.53662 21.1225 4.84094 15.3296 4.84094C9.53662 4.84094 4.84094 9.53662 4.84094 15.3296C4.84094 21.1225 9.53662 25.8182 15.3296 25.8182C17.9275 25.8182 20.3157 24.8662 22.1553 23.2848L22.5909 23.7366V25.0114L30.6591 33.0634L33.0634 30.6591L25.0114 22.5909ZM15.3296 22.5909C11.3116 22.5909 8.06822 19.3475 8.06822 15.3296C8.06822 11.3116 11.3116 8.06822 15.3296 8.06822C19.3475 8.06822 22.5909 11.3116 22.5909 15.3296C22.5909 19.3475 19.3475 22.5909 15.3296 22.5909Z" fill="#434343"/>
</g>
<defs>
<clipPath id="clip0_10_44">
<rect width="38.7273" height="38.7273" fill="white"/>
</clipPath>
</defs>
</svg>
